<svg width="189" height="196" viewBox="0 0 189 196" fill="none" xmlns="http://www.w3.org/2000/svg">
<circle cx="94.5" cy="97.5" r="93.5" fill="white" stroke="#57E231" stroke-width="2"/>
<path d="M120.295 46.168C120.295 48.4141 119.562 50.3672 118.098 52.0273C116.73 53.6875 115.07 55.0547 113.117 56.1289C111.359 57.2031 109.553 58.375 107.697 59.6445C105.842 60.8164 104.133 62.1836 102.57 63.7461C101.008 65.2109 99.7383 66.8711 98.7617 68.7266C97.7852 70.582 97.2969 72.6816 97.2969 75.0254C97.2969 77.0762 97.7852 78.9316 98.7617 80.5918C99.7383 82.252 100.91 83.9121 102.277 85.5723C103.742 87.1348 105.305 88.7949 106.965 90.5527C108.723 92.2129 110.285 94.1172 111.652 96.2656C113.117 98.3164 114.338 100.66 115.314 103.297C116.291 105.934 116.779 109.01 116.779 112.525C116.779 114.967 116.242 117.75 115.168 120.875C114.191 123.902 112.824 126.979 111.066 130.104C109.309 133.229 107.209 136.256 104.768 139.186C102.424 142.115 99.8848 144.752 97.1504 147.096C94.5137 149.342 91.7305 151.148 88.8008 152.516C85.8711 153.98 83.0391 154.713 80.3047 154.713C77.2773 154.713 74.5918 153.883 72.248 152.223C69.9043 150.562 68.7324 148.072 68.7324 144.752C68.7324 142.506 69.2695 140.455 70.3438 138.6C71.418 136.646 72.7363 134.791 74.2988 133.033C75.8613 131.275 77.5703 129.566 79.4258 127.906C81.3789 126.246 83.1367 124.586 84.6992 122.926C86.2617 121.266 87.5801 119.557 88.6543 117.799C89.7285 115.943 90.2656 113.99 90.2656 111.939C90.2656 109.107 89.2402 106.227 87.1895 103.297C85.2363 100.27 83.0391 97.1934 80.5977 94.0684C78.1562 90.8457 75.9102 87.5742 73.8594 84.2539C71.9062 80.9336 70.9297 77.5645 70.9297 74.1465C70.9297 69.9473 72.0527 65.5527 74.2988 60.9629C76.5449 56.2754 79.4258 52.0273 82.9414 48.2188C86.457 44.3125 90.4121 41.0898 94.8066 38.5508C99.2012 36.0117 103.547 34.7422 107.844 34.7422C111.262 34.7422 114.191 35.7676 116.633 37.8184C119.074 39.8691 120.295 42.6523 120.295 46.168Z" fill="#57E231"/>
</svg>
